:SAMPLES-PER-SECOND 30
:FULLY-SPECIFIED
:DEGREES
185
root  36.1739 35.4436 11.9622 -165.788 82.9989 161.663
RightUpLeg  -72.7524 -15.5666 15.9508
RightLeg  46.0593 -4.62553 -5.45344
RightFoot  -7.92967 0.236288 -9.6908
RightToes  0.00048216 0.542163 -0.142577
Spine  68.3275 -4.90226 8.37944
Spine1  3.10383 0.43413 -1.07871
HEad  -32.4724 -9.40262 8.30123
LeftShoulder1  8.96671 -25.6876 -24.312
LeftArm  -90.9981 -70.1744 44.8003
LeftForeArm  -2.28411 -12.3266 -2.9461
LeftHand  -0.25398 0.0180481 5.50724
RightShoulder  2.58945 12.9024 8.3326
RightArm  -78.0882 62.6727 -25.4957
RightForeArm  -18.3898 15.0881 4.25967
RightHand  -0.503578 12.4587 -3.82058
LeftUpLeg  -72.4763 16.2301 -19.9389
LeftLeg  41.5838 -0.439154 -0.0244209
LeftFoot  -5.09229 -0.257035 5.27335
LeftToes  1.06246e-005 4.65855e-005 -8.185e-006
186
root  36.3925 35.1498 12.0172 -164.77 83.0671 162.395
RightUpLeg  -73.8648 -15.1812 16.0475
RightLeg  48.3189 -4.75726 -6.05081
RightFoot  -9.13699 0.123912 -9.6148
RightToes  0.00048216 0.542163 -0.142577
Spine  70.0428 -5.04555 8.40341
Spine1  2.47745 0.419802 -1.11774
HEad  -33.0203 -9.21741 8.26057
LeftShoulder1  8.51439 -25.7604 -22.6073
LeftArm  -93.3169 -69.2765 47.2963
LeftForeArm  -3.37443 -11.6189 -2.52747
LeftHand  -0.25398 0.0180481 5.50724
RightShoulder  2.40559 12.8398 7.13957
RightArm  -79.9361 62.1578 -27.1223
RightForeArm  -18.4846 14.8421 4.03022
RightHand  -0.439898 12.4344 -3.41192
LeftUpLeg  -73.6531 15.7702 -19.2005
LeftLeg  43.9259 0.0979882 0.508685
LeftFoot  -6.0208 -0.216334 5.44617
LeftToes  1.06246e-005 4.65855e-005 -8.185e-006
187
root  36.6076 34.8631 12.0602 -165.148 83.4005 161.649
RightUpLeg  -74.9783 -14.7292 16.0819
RightLeg  50.3696 -4.71603 -6.44935
RightFoot  -10.2359 0.0254282 -9.76724
RightToes  0.00048216 0.542163 -0.142577
Spine  71.3994 -4.94727 8.16336
Spine1  2.03537 0.48868 -1.20142
HEad  -33.3576 -9.21445 8.25505
LeftShoulder1  8.08441 -25.6883 -21.1286
LeftArm  -95.8105 -68.7184 48.8914
LeftForeArm  -3.25511 -11.031 -1.80171
LeftHand  -0.25398 0.0180481 5.50724
RightShoulder  2.24035 12.6012 6.23333
RightArm  -81.5712 62.0323 -28.536
RightForeArm  -18.5484 14.5629 3.84012
RightHand  -0.36772 12.3085 -2.96011
LeftUpLeg  -74.9173 15.5721 -18.9018
LeftLeg  46.1694 0.642541 1.13799
LeftFoot  -6.81978 -0.203351 6.18549
LeftToes  1.06246e-005 4.65855e-005 -8.185e-006
188
root  36.8185 34.61 12.0794 -165.776 83.7754 160.48
RightUpLeg  -76.1363 -14.3225 16.2123
RightLeg  52.0889 -4.61907 -6.72657
RightFoot  -11.1455 -0.0577617 -10.0551
RightToes  0.00048216 0.542163 -0.142577
Spine  72.3318 -4.87792 8.04374
Spine1  1.57312 0.619133 -1.47858
HEad  -33.6993 -9.41589 8.20703
LeftShoulder1  7.79795 -25.6542 -20.1195
LeftArm  -97.9721 -68.5504 49.8231
LeftForeArm  -3.07545 -10.5516 -1.10381
LeftHand  -0.25398 0.0180481 5.50724
RightShoulder  2.10031 12.2261 5.60638
RightArm  -83.3112 62.2608 -29.69
RightForeArm  -18.2443 14.039 3.5493
RightHand  -0.323789 12.2367 -2.6813
LeftUpLeg  -76.2385 15.5391 -18.8909
LeftLeg  48.1221 0.972605 1.59739
LeftFoot  -7.67937 -0.156123 6.30829
LeftToes  1.06246e-005 4.65855e-005 -8.185e-006
189
root  37.0286 34.4116 12.0768 -166.219 84.0104 159.401
RightUpLeg  -77.2326 -14.065 16.3928
RightLeg  53.4848 -4.55224 -6.98162
RightFoot  -11.9128 -0.130993 -10.1778
RightToes  0.00048216 0.542163 -0.142577
Spine  72.9518 -4.96138 8.14438
Spine1  1.12195 0.732131 -1.86596
HEad  -34.1512 -9.65355 8.06717
LeftShoulder1  7.62673 -25.7673 -19.3823
LeftArm  -98.9564 -68.4883 50.1285
LeftForeArm  -3.77094 -10.2602 -0.741943
LeftHand  -0.25398 0.0180481 5.50724
RightShoulder  1.97147 11.8385 5.04102
RightArm  -84.9135 62.633 -30.525
RightForeArm  -17.8444 13.2269 3.14486
RightHand  -0.320321 12.271 -2.65473
LeftUpLeg  -77.3761 15.4283 -18.9116
LeftLeg  49.6312 1.12334 1.8657
LeftFoot  -8.49898 -0.0934589 5.82667
LeftToes  1.06246e-005 4.65855e-005 -8.185e-006
190
root  37.24 34.2661 12.0815 -167.441 84.1987 157.506
RightUpLeg  -78.1729 -13.7675 16.3586
RightLeg  54.6055 -4.53348 -7.24959
RightFoot  -12.5631 -0.192486 -10.0889
RightToes  0.00048216 0.542163 -0.142577
Spine  73.353 -4.97228 8.1554
Spine1  0.905892 0.764874 -2.13639
HEad  -34.7143 -9.63175 7.98908
LeftShoulder1  7.47542 -25.9558 -18.6494
LeftArm  -99.1436 -68.1832 50.2209
LeftForeArm  -4.59869 -10.2418 -0.591949
LeftHand  -0.25398 0.0180481 5.50724
RightShoulder  1.84329 11.5598 4.35028
RightArm  -86.163 62.898 -30.9046
RightForeArm  -17.7795 12.4866 2.727
RightHand  -0.323797 12.2325 -2.68145
LeftUpLeg  -78.2597 15.2229 -18.9505
LeftLeg  50.7317 1.30418 2.17034
LeftFoot  -9.15442 -0.0506227 5.54647
LeftToes  1.06246e-005 4.65855e-005 -8.185e-006
191
root  37.4517 34.1721 12.111 -169.028 84.3869 155.287
RightUpLeg  -78.8598 -13.3697 16.1762
RightLeg  55.4179 -4.55761 -7.5112
RightFoot  -13.0664 -0.239549 -10.0304
RightToes  0.00048216 0.542163 -0.142577
Spine  73.6762 -4.84123 7.97215
Spine1  0.883111 0.731131 -2.23897
HEad  -35.3574 -9.19586 8.04672
LeftShoulder1  7.30863 -26.0425 -17.961
LeftArm  -99.5065 -67.6125 50.4479
LeftForeArm  -4.48871 -10.502 -0.367471
LeftHand  -0.25398 0.0180481 5.50724
RightShoulder  1.7399 11.4343 3.68453
RightArm  -87.0836 62.9744 -30.6504
RightForeArm  -17.9772 12.3997 2.44683
RightHand  -0.314554 11.9738 -2.6484
LeftUpLeg  -78.9175 15.0766 -18.9748
LeftLeg  51.5089 1.49948 2.48925
LeftFoot  -9.6849 -0.0208886 5.47096
LeftToes  1.06246e-005 4.65855e-005 -8.185e-006
192
root  37.6605 34.1336 12.1441 -169.213 84.4436 154.591
RightUpLeg  -79.2675 -13.1862 16.2469
RightLeg  55.886 -4.57447 -7.672
RightFoot  -13.4252 -0.275121 -10.122
RightToes  0.00048216 0.542163 -0.142577
Spine  74.0432 -4.78334 7.80906
Spine1  0.82516 0.6716 -2.24372
HEad  -36.0325 -8.51793 7.9499
LeftShoulder1  7.14731 -25.9334 -17.4727
LeftArm  -99.939 -66.9886 50.4627
LeftForeArm  -3.59977 -11.0458 -0.107743
LeftHand  -0.25398 0.0180481 5.50724
RightShoulder  1.67618 11.3792 3.24868
RightArm  -87.5267 62.9943 -29.8301
RightForeArm  -18.153 13.1285 2.47393
RightHand  -0.345644 11.6733 -2.89121
LeftUpLeg  -79.3092 14.9971 -18.8721
LeftLeg  51.9647 1.56732 2.62086
LeftFoot  -10.1268 0.00614332 5.16227
LeftToes  1.06246e-005 4.65855e-005 -8.185e-006
193
root  37.8633 34.1357 12.1584 -168.082 84.3291 155.272
RightUpLeg  -79.5573 -13.3737 16.6596
RightLeg  56.098 -4.53171 -7.66694
RightFoot  -13.6916 -0.302286 -10.2084
RightToes  0.00048216 0.542163 -0.142577
Spine  74.3171 -4.81444 7.74255
Spine1  0.781043 0.609407 -2.06657
HEad  -36.782 -7.93578 7.41674
LeftShoulder1  7.04486 -25.7866 -17.2304
LeftArm  -99.7232 -66.382 49.9915
LeftForeArm  -2.75944 -11.8637 -0.0899078
LeftHand  -0.25398 0.0180481 5.50724
RightShoulder  1.61663 11.2534 2.89953
RightArm  -87.1161 63.0718 -28.8137
RightForeArm  -18.4485 14.1403 2.82778
RightHand  -0.463782 11.5922 -3.70291
LeftUpLeg  -79.4982 14.8787 -18.7321
LeftLeg  52.1342 1.53674 2.59434
LeftFoot  -10.4629 0.0262634 4.79296
LeftToes  1.06246e-005 4.65855e-005 -8.185e-006
194
root  38.0583 34.1502 12.1675 -167.138 84.212 155.702
RightUpLeg  -79.8741 -13.5802 17.0756
RightLeg  56.1882 -4.4843 -7.61846
RightFoot  -13.9029 -0.321617 -10.164
RightToes  0.00048216 0.542163 -0.142577
Spine  74.2869 -4.70833 7.63225
Spine1  0.973497 0.570322 -1.69325
HEad  -37.6835 -7.5711 6.67694
LeftShoulder1  7.00545 -25.7849 -17.0867
LeftArm  -99.1942 -65.7633 49.4568
LeftForeArm  -2.16902 -12.8001 -0.295902
LeftHand  -0.25398 0.0180481 5.50724
RightShoulder  1.53785 11.0231 2.48368
RightArm  -86.0879 63.1849 -27.9763
RightForeArm  -19.0346 14.9022 3.25978
RightHand  -0.588244 11.5684 -4.55751
LeftUpLeg  -79.7075 14.791 -18.7529
LeftLeg  52.1745 1.49907 2.54607
LeftFoot  -10.7252 0.0392417 4.71082
LeftToes  1.06246e-005 4.65855e-005 -8.185e-006
195
root  38.2416 34.1696 12.193 -166.28 84.2173 156.038
RightUpLeg  -80.111 -13.488 17.3052
RightLeg  56.2054 -4.53734 -7.70698
RightFoot  -14.0574 -0.334639 -10.0887
RightToes  0.00048216 0.542163 -0.142577
Spine  74.2124 -4.58422 7.39404
Spine1  1.06191 0.455125 -1.59786
HEad  -38.4224 -7.05677 6.23443
LeftShoulder1  6.90512 -25.6081 -16.8747
LeftArm  -99.2227 -65.3 49.1019
LeftForeArm  -1.42824 -13.6806 -0.486451
LeftHand  -0.25398 0.0180481 5.50724
RightShoulder  1.52899 11.0394 2.39969
RightArm  -85.2965 63.3352 -27.2964
RightForeArm  -19.3727 15.5303 3.58323
RightHand  -0.588818 11.2122 -4.63817
LeftUpLeg  -79.9992 14.8877 -18.8687
LeftLeg  52.2129 1.4317 2.45613
LeftFoot  -10.9414 0.0493129 4.72433
LeftToes  1.06246e-005 4.65855e-005 -8.185e-006
196
root  38.4068 34.2037 12.2247 -164.847 84.2503 157.11
RightUpLeg  -80.1412 -13.2909 17.4886
RightLeg  56.1694 -4.6755 -7.91382
RightFoot  -14.1621 -0.345024 -10.1058
RightToes  0.00048216 0.542163 -0.142577
Spine  74.272 -4.59328 7.23514
Spine1  0.990817 0.374316 -1.88904
HEad  -38.8163 -6.47113 6.11537
LeftShoulder1  6.68924 -25.2948 -16.3503
LeftArm  -100.116 -65.1403 48.5089
LeftForeArm  -0.178085 -14.5127 -0.506758
LeftHand  -0.25398 0.0180481 5.50724
RightShoulder  1.5993 11.0575 2.93512
RightArm  -85.3616 63.565 -27.0244
RightForeArm  -19.3476 16.3924 3.87684
RightHand  -0.516549 10.569 -4.27674
LeftUpLeg  -80.1761 15.0668 -18.8451
LeftLeg  52.2288 1.34407 2.33618
LeftFoot  -11.0667 0.0556884 4.5447
LeftToes  1.06246e-005 4.65855e-005 -8.185e-006
197
root  38.5499 34.2461 12.2416 -163.728 84.1983 158.028
RightUpLeg  -80.0769 -13.2816 17.6829
RightLeg  56.148 -4.79311 -8.09202
RightFoot  -14.2604 -0.355916 -10.1655
RightToes  0.00048216 0.542163 -0.142577
Spine  74.3234 -4.69994 7.21254
Spine1  1.03356 0.35119 -2.22645
HEad  -39.0257 -6.0523 5.98053
LeftShoulder1  6.49718 -25.1534 -15.7514
LeftArm  -100.91 -65.0558 47.9248
LeftForeArm  0.962546 -15.1697 -0.549648
LeftHand  -0.25398 0.0180481 5.50724
RightShoulder  1.65344 10.8089 3.57716
RightArm  -85.7711 63.8588 -27.2032
RightForeArm  -19.7576 17.305 4.20327
RightHand  -0.596179 10.3458 -4.90016
LeftUpLeg  -80.1243 15.0719 -18.6725
LeftLeg  52.1731 1.36111 2.35535
LeftFoot  -11.1025 0.0577875 4.31813
LeftToes  1.06246e-005 4.65855e-005 -8.185e-006
